<svg width="72" height="60" viewBox="0 0 72 60" fill="none" xmlns="http://www.w3.org/2000/svg">
<path d="M47.7046 34.7475H44.3881L37.5748 26.0235C37.3881 25.7838 37.1492 25.5898 36.8762 25.4564C36.6033 25.3231 36.3035 25.2537 35.9997 25.2537C35.6959 25.2537 35.3961 25.3231 35.1231 25.4564C34.8502 25.5898 34.6112 25.7838 34.4246 26.0235L27.6112 34.7475H24.2948C22.6304 34.7475 21.6957 32.8292 22.7197 31.5181L34.4246 16.5292C34.6117 16.2901 34.8507 16.0968 35.1236 15.9638C35.3965 15.8308 35.6961 15.7617 35.9997 15.7617C36.3033 15.7617 36.6029 15.8308 36.8758 15.9638C37.1487 16.0968 37.3877 16.2901 37.5748 16.5292L49.2797 31.5181C50.3037 32.8292 49.369 34.7475 47.7046 34.7475Z" fill="#F7F7F6"/>
<path d="M47.7046 44.2391H24.2948C22.6304 44.2391 21.6957 42.3226 22.7197 41.0102L27.6112 34.7471H44.3881L49.2797 41.0102C50.3037 42.3226 49.369 44.2391 47.7046 44.2391Z" fill="#00FEB7"/>
</svg>